# xmcd
#
# Track frame offsets:
#	150
#	16174
#	33650
#	50275
#	69038
#	90222
#	119515
#	149030
#	174887
#	188376
#	209619
#	227700
#	245487
#	267662
#	283502
#	307388
#	324129
#
# Disc length: 4580 seconds
#
# Revision: 0
# Processed by: cddbd v1.5.1PL2 Copyright (c) Steve Scherf et al.
# Submitted via: dBpowerAMP V4.0
#
DISCID=ec11e211
DTITLE=Various Artist - tin
DYEAR=1900
DGENRE=Blues
TTITLE0=when you first believe
TTITLE1=none - later
TTITLE2=last time
TTITLE3=kung ako nalang sana
TTITLE4=beauty and madness
TTITLE5=closer i get to you
TTITLE6=love of my life
TTITLE7=kahit kailan
TTITLE8=if i keep my heart out of sight
TTITLE9=kailangan kita
TTITLE10=unknown
TTITLE11=more than you'll ever know
TTITLE12=four seasons of loneliness
TTITLE13=overjoyed
TTITLE14=too crazy
TTITLE15=someday we'll know
TTITLE16=it might be you
EXTD=tintin
EXTT0=
EXTT1=
EXTT2=
EXTT3=
EXTT4=
EXTT5=
EXTT6=
EXTT7=
EXTT8=
EXTT9=
EXTT10=
EXTT11=
EXTT12=
EXTT13=
EXTT14=
EXTT15=
EXTT16=
PLAYORDER=
